<svg width="853" height="261" viewBox="0 0 853 261" fill="none" xmlns="http://www.w3.org/2000/svg">
<rect width="853" height="261" rx="29" fill="#5A5A5A"/>
<path fill-rule="evenodd" clip-rule="evenodd" d="M265.597 78.3822C243.597 71.3822 255.894 49.3975 265.597 43.3822C275.301 37.3668 349.097 23.3821 378.097 43.3822C407.098 63.3822 401.097 127.868 378.097 147.382C355.097 166.896 334.097 169.882 301.097 147.382C282.129 134.449 288.766 157.528 295.655 181.487C300.752 199.211 305.987 217.417 301.097 221.882C289.597 232.382 277.597 232.396 265.597 221.882C253.597 211.368 244.597 128.368 265.597 113.382C278.916 103.878 298.269 107.435 315.874 110.671C326.027 112.537 335.599 114.297 343.097 113.382C363.597 110.882 365.168 73.6454 343.097 78.3822C321.026 83.119 287.597 85.3822 265.597 78.3822ZM282.597 60.8822C285.635 60.8822 288.097 58.4197 288.097 55.3822C288.097 52.3446 285.635 49.8822 282.597 49.8822C279.56 49.8822 277.097 52.3446 277.097 55.3822C277.097 58.4197 279.56 60.8822 282.597 60.8822Z" fill="#D9D9D9"/>
<path d="M265.597 43.3822L265.861 43.8071L265.861 43.8071L265.597 43.3822ZM265.597 78.3822L265.446 78.8586L265.597 78.3822ZM378.097 43.3822L377.813 43.7938L377.813 43.7938L378.097 43.3822ZM378.097 147.382L378.421 147.763L378.421 147.763L378.097 147.382ZM301.097 147.382L300.815 147.795L300.815 147.795L301.097 147.382ZM295.655 181.487L295.175 181.625L295.175 181.625L295.655 181.487ZM301.097 221.882L301.434 222.251L301.434 222.251L301.097 221.882ZM265.597 221.882L265.927 221.506L265.927 221.506L265.597 221.882ZM265.597 113.382L265.888 113.789L265.888 113.789L265.597 113.382ZM315.874 110.671L315.783 111.163L315.783 111.163L315.874 110.671ZM343.097 113.382L343.037 112.886L343.037 112.886L343.097 113.382ZM265.334 42.9572C260.373 46.0324 254.787 53.1445 253.22 60.4075C252.433 64.0541 252.651 67.7797 254.517 71.0538C256.384 74.3303 259.861 77.0816 265.446 78.8586L265.749 77.9057C260.334 76.1828 257.097 73.561 255.386 70.5586C253.673 67.5538 253.447 64.0948 254.197 60.6184C255.704 53.6351 261.118 46.7472 265.861 43.8071L265.334 42.9572ZM378.381 42.9706C371.036 37.905 360.894 35.0145 349.712 33.6027C338.52 32.1898 326.238 32.2522 314.573 33.1278C302.907 34.0036 291.845 35.6938 283.087 37.5427C278.709 38.4672 274.902 39.4322 271.881 40.3567C268.874 41.2769 266.606 42.1686 265.334 42.9572L265.861 43.8071C267.014 43.0919 269.175 42.2307 272.174 41.3129C275.159 40.3993 278.936 39.4412 283.294 38.5212C292.009 36.6811 303.028 34.9973 314.648 34.125C326.27 33.2526 338.482 33.1928 349.586 34.5948C360.7 35.9979 370.658 38.8593 377.813 43.7938L378.381 42.9706ZM378.421 147.763C384.259 142.81 388.987 135.034 392.348 125.885C395.711 116.729 397.72 106.161 398.097 95.5822C398.849 74.4648 393.095 53.1181 378.381 42.9706L377.813 43.7938C392.1 53.6463 397.846 74.5425 397.098 95.5466C396.724 106.028 394.733 116.491 391.409 125.54C388.083 134.595 383.435 142.198 377.774 147.001L378.421 147.763ZM300.815 147.795C317.358 159.074 330.963 164.015 343.362 163.637C355.77 163.259 366.876 157.558 378.421 147.763L377.774 147.001C366.318 156.72 355.424 162.269 343.332 162.638C331.232 163.006 317.837 158.19 301.379 146.969L300.815 147.795ZM296.136 181.349C294.413 175.356 292.709 169.432 291.417 164.114C290.124 158.788 289.253 154.106 289.18 150.59C289.143 148.83 289.307 147.402 289.693 146.344C290.074 145.297 290.656 144.649 291.45 144.355C292.265 144.052 293.405 144.083 294.972 144.624C296.533 145.164 298.463 146.191 300.815 147.795L301.379 146.969C298.989 145.34 296.977 144.259 295.298 143.679C293.625 143.101 292.224 143 291.102 143.417C289.959 143.842 289.204 144.764 288.753 146.001C288.307 147.227 288.142 148.796 288.18 150.611C288.256 154.242 289.15 159.014 290.446 164.35C291.743 169.693 293.453 175.638 295.175 181.625L296.136 181.349ZM301.434 222.251C302.81 220.996 303.407 218.846 303.526 216.202C303.646 213.535 303.283 210.244 302.613 206.567C301.273 199.212 298.682 190.203 296.136 181.349L295.175 181.625C297.725 190.495 300.3 199.451 301.629 206.747C302.294 210.395 302.642 213.601 302.527 216.157C302.411 218.736 301.83 220.536 300.76 221.513L301.434 222.251ZM265.268 222.258C271.328 227.568 277.44 230.264 283.535 230.262C289.631 230.261 295.621 227.559 301.434 222.251L300.76 221.513C295.073 226.705 289.313 229.261 283.534 229.262C277.754 229.264 271.866 226.71 265.927 221.506L265.268 222.258ZM265.307 112.975C259.887 116.842 256.484 125.015 254.559 135.085C252.627 145.189 252.159 157.34 252.723 169.333C253.286 181.327 254.884 193.187 257.095 202.714C258.2 207.477 259.461 211.668 260.828 215.006C262.188 218.327 263.677 220.864 265.268 222.258L265.927 221.506C264.518 220.272 263.1 217.916 261.753 214.627C260.413 211.354 259.166 207.219 258.069 202.488C255.873 193.027 254.283 181.229 253.722 169.286C253.16 157.341 253.629 145.274 255.541 135.273C257.46 125.237 260.807 117.415 265.888 113.789L265.307 112.975ZM315.964 110.179C307.171 108.563 297.888 106.855 289.134 106.749C280.377 106.642 272.087 108.136 265.307 112.975L265.888 113.789C272.426 109.123 280.472 107.644 289.122 107.749C297.775 107.854 306.972 109.543 315.783 111.163L315.964 110.179ZM343.037 112.886C335.631 113.789 326.145 112.051 315.964 110.179L315.783 111.163C325.908 113.024 335.567 114.804 343.158 113.878L343.037 112.886ZM343.202 78.871C348.573 77.7184 352.424 79.1246 354.923 81.8396C357.446 84.5803 358.658 88.7278 358.561 93.1575C358.368 102.048 352.945 111.677 343.037 112.886L343.158 113.878C353.749 112.587 359.362 102.348 359.561 93.1792C359.661 88.5794 358.409 84.1495 355.659 81.1624C352.886 78.1496 348.657 76.6776 342.992 77.8933L343.202 78.871ZM265.446 78.8586C276.519 82.3822 290.438 83.5668 304.331 83.2834C318.229 82.9998 332.136 81.2461 343.202 78.871L342.992 77.8933C331.988 80.2551 318.144 82.0013 304.31 82.2836C290.47 82.5659 276.675 81.3822 265.749 77.9057L265.446 78.8586ZM287.597 55.3822C287.597 58.1436 285.359 60.3822 282.597 60.3822V61.3822C285.911 61.3822 288.597 58.6959 288.597 55.3822H287.597ZM282.597 50.3822C285.359 50.3822 287.597 52.6207 287.597 55.3822H288.597C288.597 52.0685 285.911 49.3822 282.597 49.3822V50.3822ZM277.597 55.3822C277.597 52.6207 279.836 50.3822 282.597 50.3822V49.3822C279.284 49.3822 276.597 52.0685 276.597 55.3822H277.597ZM282.597 60.3822C279.836 60.3822 277.597 58.1436 277.597 55.3822H276.597C276.597 58.6959 279.284 61.3822 282.597 61.3822V60.3822Z" fill="black"/>
<rect x="325" y="95" width="281" height="128" rx="29" fill="#FEA14B"/>
<path d="M373.136 193.96C372.048 193.96 371.184 193.64 370.544 193C369.904 192.296 369.584 191.336 369.584 190.12V128.68C369.584 127.464 369.904 126.536 370.544 125.896C371.184 125.192 372.048 124.84 373.136 124.84C374.288 124.84 375.184 125.192 375.824 125.896C376.464 126.536 376.784 127.464 376.784 128.68V155.464H418.928V128.68C418.928 127.464 419.248 126.536 419.888 125.896C420.528 125.192 421.424 124.84 422.576 124.84C423.664 124.84 424.528 125.192 425.168 125.896C425.808 126.536 426.128 127.464 426.128 128.68V190.12C426.128 191.336 425.808 192.296 425.168 193C424.528 193.64 423.664 193.96 422.576 193.96C421.488 193.96 420.592 193.64 419.888 193C419.248 192.296 418.928 191.336 418.928 190.12V161.512H376.784V190.12C376.784 191.336 376.464 192.296 375.824 193C375.184 193.64 374.288 193.96 373.136 193.96ZM468.663 193.96C462.967 193.96 458.007 192.84 453.783 190.6C449.623 188.36 446.423 185.128 444.183 180.904C441.943 176.68 440.823 171.656 440.823 165.832V128.68C440.823 127.464 441.143 126.536 441.783 125.896C442.423 125.192 443.287 124.84 444.375 124.84C445.527 124.84 446.423 125.192 447.063 125.896C447.703 126.536 448.023 127.464 448.023 128.68V166.12C448.023 173.032 449.847 178.376 453.495 182.152C457.143 185.928 462.263 187.816 468.855 187.816C475.511 187.816 480.695 185.928 484.407 182.152C488.183 178.312 490.071 172.968 490.071 166.12V128.68C490.071 127.464 490.391 126.536 491.031 125.896C491.735 125.192 492.631 124.84 493.719 124.84C494.871 124.84 495.735 125.192 496.311 125.896C496.951 126.536 497.271 127.464 497.271 128.68V165.832C497.271 171.464 496.119 176.424 493.815 180.712C491.511 184.936 488.183 188.2 483.831 190.504C479.543 192.808 474.487 193.96 468.663 193.96ZM524.564 193C520.66 193 517.62 191.976 515.444 189.928C513.268 187.816 512.18 184.936 512.18 181.288V137.32C512.18 133.736 513.236 130.92 515.348 128.872C517.524 126.824 520.532 125.8 524.372 125.8H547.124C553.588 125.8 558.612 127.4 562.196 130.6C565.78 133.8 567.572 138.312 567.572 144.136C567.572 147.464 566.708 150.376 564.98 152.872C563.252 155.304 560.884 157.16 557.876 158.44V158.632C561.268 159.848 563.924 161.768 565.844 164.392C567.764 166.952 568.724 169.992 568.724 173.512C568.724 179.528 566.9 184.296 563.252 187.816C559.604 191.272 554.612 193 548.276 193H524.564ZM547.892 155.752C551.668 155.752 554.676 154.696 556.916 152.584C559.156 150.472 560.276 147.656 560.276 144.136C560.276 140.104 559.156 137.032 556.916 134.92C554.676 132.808 551.412 131.752 547.124 131.752H524.468C522.996 131.752 521.78 132.296 520.82 133.384C519.86 134.408 519.38 135.72 519.38 137.32V155.752H547.892ZM547.892 186.952C552.308 186.952 555.668 185.832 557.972 183.592C560.276 181.288 561.428 177.96 561.428 173.608C561.428 169.832 560.212 166.888 557.78 164.776C555.348 162.664 552.02 161.608 547.796 161.608H519.38V181.48C519.38 183.08 519.86 184.392 520.82 185.416C521.78 186.44 522.996 186.952 524.468 186.952H547.892Z" fill="white"/>
<path d="M288.957 115.076C286.99 113.081 283.605 113.919 282.795 116.602C282.01 119.205 278.3 119.134 277.614 116.503C276.908 113.792 273.557 112.825 271.515 114.743C269.533 116.605 266.356 114.689 267.077 112.067C267.821 109.366 265.402 106.853 262.675 107.494C260.028 108.115 258.234 104.867 260.17 102.957C262.165 100.99 261.326 97.6047 258.644 96.7953C256.041 96.0099 256.112 92.3 258.743 91.6143C261.454 90.9077 262.421 87.5569 260.502 85.5148C258.641 83.5331 260.557 80.3556 263.178 81.0773C265.88 81.821 268.392 79.4024 267.752 76.6748C267.13 74.0278 270.379 72.234 272.288 74.1698C274.256 76.1645 277.641 75.3262 278.45 72.6439C279.236 70.0408 282.946 70.1115 283.631 72.7426C284.338 75.4538 287.689 76.4205 289.731 74.5022C291.712 72.6406 294.89 74.5568 294.168 77.1782C293.425 79.8795 295.843 82.392 298.571 81.7518C301.218 81.1304 303.011 84.3787 301.076 86.288C299.081 88.2555 299.919 91.6408 302.602 92.4501C305.205 93.2355 305.134 96.9455 302.503 97.6311C299.792 98.3377 298.825 101.689 300.743 103.731C302.605 105.712 300.689 108.89 298.067 108.168C295.366 107.424 292.854 109.843 293.494 112.571C294.115 115.218 290.867 117.011 288.957 115.076Z" fill="#64615E"/>
<path d="M288.957 115.076C286.99 113.081 283.605 113.919 282.795 116.602C282.01 119.205 278.3 119.134 277.614 116.503C276.908 113.792 273.557 112.825 271.515 114.743C269.533 116.605 266.356 114.689 267.077 112.067C267.821 109.366 265.402 106.853 262.675 107.494C260.028 108.115 258.234 104.867 260.17 102.957C262.165 100.99 261.326 97.6047 258.644 96.7953C256.041 96.0099 256.112 92.3 258.743 91.6143C261.454 90.9077 262.421 87.5569 260.502 85.5148C258.641 83.5331 260.557 80.3556 263.178 81.0773C265.88 81.821 268.392 79.4024 267.752 76.6748C267.13 74.0278 270.379 72.234 272.288 74.1698C274.256 76.1645 277.641 75.3262 278.45 72.6439C279.236 70.0408 282.946 70.1115 283.631 72.7426C284.338 75.4538 287.689 76.4205 289.731 74.5022C291.712 72.6406 294.89 74.5568 294.168 77.1782C293.425 79.8795 295.843 82.392 298.571 81.7518C301.218 81.1304 303.011 84.3787 301.076 86.288C299.081 88.2555 299.919 91.6408 302.602 92.4501C305.205 93.2355 305.134 96.9455 302.503 97.6311C299.792 98.3377 298.825 101.689 300.743 103.731C302.605 105.712 300.689 108.89 298.067 108.168C295.366 107.424 292.854 109.843 293.494 112.571C294.115 115.218 290.867 117.011 288.957 115.076Z" fill="#FC7B04"/>
<path d="M288.957 115.076C286.99 113.081 283.605 113.919 282.795 116.602C282.01 119.205 278.3 119.134 277.614 116.503C276.908 113.792 273.557 112.825 271.515 114.743C269.533 116.605 266.356 114.689 267.077 112.067C267.821 109.366 265.402 106.853 262.675 107.494C260.028 108.115 258.234 104.867 260.17 102.957C262.165 100.99 261.326 97.6047 258.644 96.7953C256.041 96.0099 256.112 92.3 258.743 91.6143C261.454 90.9077 262.421 87.5569 260.502 85.5148C258.641 83.5331 260.557 80.3556 263.178 81.0773C265.88 81.821 268.392 79.4024 267.752 76.6748C267.13 74.0278 270.379 72.234 272.288 74.1698C274.256 76.1645 277.641 75.3262 278.45 72.6439C279.236 70.0408 282.946 70.1115 283.631 72.7426C284.338 75.4538 287.689 76.4205 289.731 74.5022C291.712 72.6406 294.89 74.5568 294.168 77.1782C293.425 79.8795 295.843 82.392 298.571 81.7518C301.218 81.1304 303.011 84.3787 301.076 86.288C299.081 88.2555 299.919 91.6408 302.602 92.4501C305.205 93.2355 305.134 96.9455 302.503 97.6311C299.792 98.3377 298.825 101.689 300.743 103.731C302.605 105.712 300.689 108.89 298.067 108.168C295.366 107.424 292.854 109.843 293.494 112.571C294.115 115.218 290.867 117.011 288.957 115.076Z" fill="#B4B4B4"/>
<path d="M288.957 115.076C286.99 113.081 283.605 113.919 282.795 116.602C282.01 119.205 278.3 119.134 277.614 116.503C276.908 113.792 273.557 112.825 271.515 114.743C269.533 116.605 266.356 114.689 267.077 112.067C267.821 109.366 265.402 106.853 262.675 107.494C260.028 108.115 258.234 104.867 260.17 102.957C262.165 100.99 261.326 97.6047 258.644 96.7953C256.041 96.0099 256.112 92.3 258.743 91.6143C261.454 90.9077 262.421 87.5569 260.502 85.5148C258.641 83.5331 260.557 80.3556 263.178 81.0773C265.88 81.821 268.392 79.4024 267.752 76.6748C267.13 74.0278 270.379 72.234 272.288 74.1698C274.256 76.1645 277.641 75.3262 278.45 72.6439C279.236 70.0408 282.946 70.1115 283.631 72.7426C284.338 75.4538 287.689 76.4205 289.731 74.5022C291.712 72.6406 294.89 74.5568 294.168 77.1782C293.425 79.8795 295.843 82.392 298.571 81.7518C301.218 81.1304 303.011 84.3787 301.076 86.288C299.081 88.2555 299.919 91.6408 302.602 92.4501C305.205 93.2355 305.134 96.9455 302.503 97.6311C299.792 98.3377 298.825 101.689 300.743 103.731C302.605 105.712 300.689 108.89 298.067 108.168C295.366 107.424 292.854 109.843 293.494 112.571C294.115 115.218 290.867 117.011 288.957 115.076Z" stroke="black"/>
<path d="M315.025 126.928C313.432 125.234 310.647 125.601 309.547 127.65C308.347 129.887 304.949 128.977 305.027 126.44C305.098 124.115 302.869 122.406 300.643 123.077C298.212 123.81 296.453 120.764 298.302 119.025C299.996 117.432 299.629 114.647 297.58 113.547C295.343 112.347 296.252 108.949 298.79 109.027C301.114 109.098 302.824 106.869 302.152 104.643C301.42 102.212 304.465 100.453 306.204 102.302C307.798 103.996 310.583 103.629 311.682 101.58C312.883 99.3429 316.28 100.252 316.203 102.79C316.131 105.114 318.36 106.824 320.587 106.152C323.017 105.42 324.777 108.465 322.928 110.204C321.234 111.798 321.601 114.583 323.65 115.682C325.887 116.883 324.977 120.28 322.44 120.203C320.115 120.131 318.406 122.36 319.077 124.587C319.81 127.017 316.764 128.777 315.025 126.928Z" fill="#64615E"/>
<path d="M315.025 126.928C313.432 125.234 310.647 125.601 309.547 127.65C308.347 129.887 304.949 128.977 305.027 126.44C305.098 124.115 302.869 122.406 300.643 123.077C298.212 123.81 296.453 120.764 298.302 119.025C299.996 117.432 299.629 114.647 297.58 113.547C295.343 112.347 296.252 108.949 298.79 109.027C301.114 109.098 302.824 106.869 302.152 104.643C301.42 102.212 304.465 100.453 306.204 102.302C307.798 103.996 310.583 103.629 311.682 101.58C312.883 99.3429 316.28 100.252 316.203 102.79C316.131 105.114 318.36 106.824 320.587 106.152C323.017 105.42 324.777 108.465 322.928 110.204C321.234 111.798 321.601 114.583 323.65 115.682C325.887 116.883 324.977 120.28 322.44 120.203C320.115 120.131 318.406 122.36 319.077 124.587C319.81 127.017 316.764 128.777 315.025 126.928Z" fill="#64615E"/>
<path d="M315.025 126.928C313.432 125.234 310.647 125.601 309.547 127.65C308.347 129.887 304.949 128.977 305.027 126.44C305.098 124.115 302.869 122.406 300.643 123.077C298.212 123.81 296.453 120.764 298.302 119.025C299.996 117.432 299.629 114.647 297.58 113.547C295.343 112.347 296.252 108.949 298.79 109.027C301.114 109.098 302.824 106.869 302.152 104.643C301.42 102.212 304.465 100.453 306.204 102.302C307.798 103.996 310.583 103.629 311.682 101.58C312.883 99.3429 316.28 100.252 316.203 102.79C316.131 105.114 318.36 106.824 320.587 106.152C323.017 105.42 324.777 108.465 322.928 110.204C321.234 111.798 321.601 114.583 323.65 115.682C325.887 116.883 324.977 120.28 322.44 120.203C320.115 120.131 318.406 122.36 319.077 124.587C319.81 127.017 316.764 128.777 315.025 126.928Z" fill="#5A5A5A"/>
<path d="M315.025 126.928C313.432 125.234 310.647 125.601 309.547 127.65C308.347 129.887 304.949 128.977 305.027 126.44C305.098 124.115 302.869 122.406 300.643 123.077C298.212 123.81 296.453 120.764 298.302 119.025C299.996 117.432 299.629 114.647 297.58 113.547C295.343 112.347 296.252 108.949 298.79 109.027C301.114 109.098 302.824 106.869 302.152 104.643C301.42 102.212 304.465 100.453 306.204 102.302C307.798 103.996 310.583 103.629 311.682 101.58C312.883 99.3429 316.28 100.252 316.203 102.79C316.131 105.114 318.36 106.824 320.587 106.152C323.017 105.42 324.777 108.465 322.928 110.204C321.234 111.798 321.601 114.583 323.65 115.682C325.887 116.883 324.977 120.28 322.44 120.203C320.115 120.131 318.406 122.36 319.077 124.587C319.81 127.017 316.764 128.777 315.025 126.928Z" stroke="black"/>
</svg>
