<svg width="513" height="226" viewBox="0 0 513 226" fill="none" xmlns="http://www.w3.org/2000/svg">
<rect width="513" height="226" rx="42" fill="#272727"/>
<path fill-rule="evenodd" clip-rule="evenodd" d="M95.5971 60.3822C73.5971 53.3822 85.8935 31.3975 95.5971 25.3822C105.301 19.3668 179.097 5.38212 208.097 25.3822C237.098 45.3822 231.097 109.868 208.097 129.382C185.097 148.896 164.097 151.882 131.097 129.382C112.129 116.449 118.766 139.528 125.655 163.487C130.752 181.211 135.987 199.417 131.097 203.882C119.597 214.382 107.597 214.396 95.5971 203.882C83.5973 193.368 74.5972 110.368 95.5971 95.3821C108.916 85.8775 128.269 89.4348 145.874 92.6708C156.027 94.5371 165.599 96.2965 173.097 95.3821C193.597 92.8821 195.168 55.6454 173.097 60.3822C151.026 65.119 117.597 67.3822 95.5971 60.3822ZM112.597 42.8822C115.635 42.8822 118.097 40.4197 118.097 37.3822C118.097 34.3446 115.635 31.8822 112.597 31.8822C109.56 31.8822 107.097 34.3446 107.097 37.3822C107.097 40.4197 109.56 42.8822 112.597 42.8822Z" fill="#D9D9D9"/>
<path d="M95.5971 25.3822L95.8606 25.8071L95.5971 25.3822ZM95.5971 60.3822L95.4455 60.8586L95.5971 60.3822ZM208.097 25.3822L207.813 25.7938V25.7938L208.097 25.3822ZM208.097 129.382L208.421 129.763L208.097 129.382ZM131.097 129.382L130.815 129.795L131.097 129.382ZM125.655 163.487L125.175 163.625L125.655 163.487ZM131.097 203.882L131.434 204.251L131.097 203.882ZM95.5971 203.882L95.9266 203.506L95.5971 203.882ZM95.5971 95.3821L95.8876 95.7891L95.5971 95.3821ZM145.874 92.6708L145.783 93.1626L145.874 92.6708ZM173.097 95.3821L173.037 94.8858L173.097 95.3821ZM95.3337 24.9572C90.3729 28.0324 84.7867 35.1445 83.2195 42.4074C82.4326 46.0541 82.6508 49.7797 84.5169 53.0538C86.3844 56.3303 89.8606 59.0816 95.4455 60.8586L95.7487 59.9057C90.3337 58.1828 87.0969 55.561 85.3857 52.5586C83.6731 49.5538 83.4469 46.0948 84.197 42.6184C85.7039 35.6351 91.1178 28.7472 95.8606 25.8071L95.3337 24.9572ZM208.381 24.9706C201.036 19.905 190.894 17.0145 179.712 15.6027C168.52 14.1898 156.238 14.2522 144.573 15.1278C132.907 16.0036 121.845 17.6938 113.087 19.5427C108.709 20.4672 104.902 21.4322 101.881 22.3567C98.8743 23.2769 96.6059 24.1686 95.3337 24.9572L95.8606 25.8071C97.0143 25.0919 99.1747 24.2307 102.174 23.3129C105.159 22.3993 108.936 21.4412 113.294 20.5212C122.009 18.6811 133.028 16.9973 144.648 16.125C156.27 15.2526 168.482 15.1928 179.586 16.5948C190.7 17.9979 200.658 20.8593 207.813 25.7938L208.381 24.9706ZM208.421 129.763C214.259 124.81 218.987 117.034 222.348 107.885C225.711 98.7289 227.72 88.1611 228.097 77.5822C228.849 56.4648 223.095 35.1181 208.381 24.9706L207.813 25.7938C222.1 35.6463 227.846 56.5425 227.098 77.5466C226.724 88.0284 224.733 98.491 221.409 107.54C218.083 116.595 213.435 124.198 207.774 129.001L208.421 129.763ZM130.815 129.795C147.358 141.074 160.963 146.015 173.362 145.637C185.77 145.259 196.876 139.558 208.421 129.763L207.774 129.001C196.318 138.72 185.424 144.269 173.332 144.638C161.232 145.006 147.837 140.19 131.379 128.969L130.815 129.795ZM126.136 163.349C124.413 157.356 122.709 151.432 121.417 146.114C120.124 140.788 119.253 136.106 119.18 132.59C119.143 130.83 119.307 129.402 119.693 128.344C120.074 127.297 120.656 126.649 121.45 126.355C122.265 126.052 123.405 126.083 124.972 126.624C126.533 127.164 128.463 128.191 130.815 129.795L131.379 128.969C128.989 127.34 126.977 126.259 125.298 125.679C123.625 125.101 122.224 125 121.102 125.417C119.959 125.842 119.204 126.764 118.753 128.001C118.307 129.227 118.142 130.796 118.18 132.611C118.256 136.243 119.15 141.014 120.446 146.35C121.743 151.693 123.453 157.638 125.175 163.625L126.136 163.349ZM131.434 204.251C132.81 202.996 133.407 200.846 133.526 198.202C133.646 195.535 133.283 192.244 132.613 188.567C131.273 181.212 128.682 172.203 126.136 163.349L125.175 163.625C127.725 172.495 130.3 181.451 131.629 188.747C132.294 192.395 132.642 195.601 132.527 198.157C132.411 200.736 131.83 202.536 130.76 203.513L131.434 204.251ZM95.2676 204.258C101.328 209.568 107.44 212.264 113.535 212.262C119.631 212.261 125.621 209.559 131.434 204.251L130.76 203.513C125.073 208.705 119.313 211.261 113.534 211.262C107.754 211.264 101.866 208.71 95.9266 203.506L95.2676 204.258ZM95.3067 94.9751C89.8875 98.8424 86.4844 107.015 84.5592 117.085C82.6275 127.189 82.1591 139.34 82.7228 151.333C83.2865 163.327 84.8837 175.187 87.0945 184.714C88.1998 189.477 89.4609 193.668 90.8278 197.006C92.188 200.327 93.6768 202.864 95.2676 204.258L95.9266 203.506C94.5176 202.272 93.1001 199.916 91.7532 196.627C90.4132 193.354 89.1665 189.219 88.0686 184.488C85.8733 175.027 84.283 163.229 83.7217 151.286C83.1603 139.341 83.6294 127.274 85.5414 117.273C87.4599 107.237 90.8068 99.4149 95.8876 95.7891L95.3067 94.9751ZM145.964 92.1791C137.171 90.5627 127.888 88.8551 119.134 88.7488C110.377 88.6424 102.087 90.1364 95.3067 94.9751L95.8876 95.7891C102.426 91.1233 110.472 89.6436 119.122 89.7487C127.775 89.8538 136.972 91.5429 145.783 93.1626L145.964 92.1791ZM173.037 94.8858C165.631 95.7889 156.145 94.0505 145.964 92.1791L145.783 93.1626C155.908 95.0237 165.567 96.8042 173.158 95.8784L173.037 94.8858ZM173.202 60.871C178.573 59.7184 182.424 61.1246 184.923 63.8396C187.446 66.5803 188.658 70.7278 188.561 75.1575C188.368 84.0479 182.945 93.6775 173.037 94.8858L173.158 95.8784C183.749 94.5868 189.362 84.348 189.561 75.1792C189.661 70.5794 188.409 66.1495 185.659 63.1624C182.886 60.1496 178.657 58.6776 172.992 59.8933L173.202 60.871ZM95.4455 60.8586C106.519 64.3822 120.438 65.5668 134.331 65.2834C148.229 64.9998 162.136 63.2461 173.202 60.871L172.992 59.8933C161.988 62.2551 148.144 64.0013 134.31 64.2836C120.47 64.5659 106.675 63.3822 95.7487 59.9057L95.4455 60.8586ZM117.597 37.3822C117.597 40.1436 115.359 42.3822 112.597 42.3822V43.3822C115.911 43.3822 118.597 40.6959 118.597 37.3822H117.597ZM112.597 32.3822C115.359 32.3822 117.597 34.6207 117.597 37.3822H118.597C118.597 34.0685 115.911 31.3822 112.597 31.3822V32.3822ZM107.597 37.3822C107.597 34.6207 109.836 32.3822 112.597 32.3822V31.3822C109.284 31.3822 106.597 34.0685 106.597 37.3822H107.597ZM112.597 42.3822C109.836 42.3822 107.597 40.1436 107.597 37.3822H106.597C106.597 40.6959 109.284 43.3822 112.597 43.3822V42.3822Z" fill="black"/>
<rect x="155" y="77" width="281" height="128" rx="29" fill="#FEA14B"/>
<path d="M203.136 175.96C202.048 175.96 201.184 175.64 200.544 175C199.904 174.296 199.584 173.336 199.584 172.12V110.68C199.584 109.464 199.904 108.536 200.544 107.896C201.184 107.192 202.048 106.84 203.136 106.84C204.288 106.84 205.184 107.192 205.824 107.896C206.464 108.536 206.784 109.464 206.784 110.68V137.464H248.928V110.68C248.928 109.464 249.248 108.536 249.888 107.896C250.528 107.192 251.424 106.84 252.576 106.84C253.664 106.84 254.528 107.192 255.168 107.896C255.808 108.536 256.128 109.464 256.128 110.68V172.12C256.128 173.336 255.808 174.296 255.168 175C254.528 175.64 253.664 175.96 252.576 175.96C251.488 175.96 250.592 175.64 249.888 175C249.248 174.296 248.928 173.336 248.928 172.12V143.512H206.784V172.12C206.784 173.336 206.464 174.296 205.824 175C205.184 175.64 204.288 175.96 203.136 175.96ZM298.663 175.96C292.967 175.96 288.007 174.84 283.783 172.6C279.623 170.36 276.423 167.128 274.183 162.904C271.943 158.68 270.823 153.656 270.823 147.832V110.68C270.823 109.464 271.143 108.536 271.783 107.896C272.423 107.192 273.287 106.84 274.375 106.84C275.527 106.84 276.423 107.192 277.063 107.896C277.703 108.536 278.023 109.464 278.023 110.68V148.12C278.023 155.032 279.847 160.376 283.495 164.152C287.143 167.928 292.263 169.816 298.855 169.816C305.511 169.816 310.695 167.928 314.407 164.152C318.183 160.312 320.071 154.968 320.071 148.12V110.68C320.071 109.464 320.391 108.536 321.031 107.896C321.735 107.192 322.631 106.84 323.719 106.84C324.871 106.84 325.735 107.192 326.311 107.896C326.951 108.536 327.271 109.464 327.271 110.68V147.832C327.271 153.464 326.119 158.424 323.815 162.712C321.511 166.936 318.183 170.2 313.831 172.504C309.543 174.808 304.487 175.96 298.663 175.96ZM354.564 175C350.66 175 347.62 173.976 345.444 171.928C343.268 169.816 342.18 166.936 342.18 163.288V119.32C342.18 115.736 343.236 112.92 345.348 110.872C347.524 108.824 350.532 107.8 354.372 107.8H377.124C383.588 107.8 388.612 109.4 392.196 112.6C395.78 115.8 397.572 120.312 397.572 126.136C397.572 129.464 396.708 132.376 394.98 134.872C393.252 137.304 390.884 139.16 387.876 140.44V140.632C391.268 141.848 393.924 143.768 395.844 146.392C397.764 148.952 398.724 151.992 398.724 155.512C398.724 161.528 396.9 166.296 393.252 169.816C389.604 173.272 384.612 175 378.276 175H354.564ZM377.892 137.752C381.668 137.752 384.676 136.696 386.916 134.584C389.156 132.472 390.276 129.656 390.276 126.136C390.276 122.104 389.156 119.032 386.916 116.92C384.676 114.808 381.412 113.752 377.124 113.752H354.468C352.996 113.752 351.78 114.296 350.82 115.384C349.86 116.408 349.38 117.72 349.38 119.32V137.752H377.892ZM377.892 168.952C382.308 168.952 385.668 167.832 387.972 165.592C390.276 163.288 391.428 159.96 391.428 155.608C391.428 151.832 390.212 148.888 387.78 146.776C385.348 144.664 382.02 143.608 377.796 143.608H349.38V163.48C349.38 165.08 349.86 166.392 350.82 167.416C351.78 168.44 352.996 168.952 354.468 168.952H377.892Z" fill="white"/>
<path d="M112.795 98.6016C112.01 101.205 108.3 101.134 107.614 98.5028C106.908 95.7916 103.557 94.825 101.515 96.7433C99.5332 98.6049 96.3556 96.6887 97.0774 94.0672C97.8211 91.366 95.4025 88.8534 92.6749 89.4937C90.0278 90.115 88.2341 86.8668 90.1698 84.9574C92.1645 82.9899 91.3263 79.6047 88.6439 78.7953C86.0409 78.0099 86.1116 74.3 88.7427 73.6143C91.4539 72.9077 92.4205 69.5569 90.5022 67.5148C88.6406 65.5331 90.5568 62.3556 93.1783 63.0773C95.8795 63.821 98.3921 61.4024 97.7518 58.6748C97.1305 56.0278 100.379 54.234 102.288 56.1698C104.256 58.1645 107.641 57.3262 108.45 54.6439C109.236 52.0408 112.946 52.1115 113.631 54.7426C114.338 57.4538 117.689 58.4205 119.731 56.5022C121.712 54.6406 124.89 56.5568 124.168 59.1782C123.425 61.8795 125.843 64.392 128.571 63.7518C131.218 63.1304 133.011 66.3787 131.076 68.288C129.081 70.2555 129.919 73.6408 132.602 74.4501C135.205 75.2355 135.134 78.9455 132.503 79.6311C129.792 80.3377 128.825 83.6885 130.743 85.7306C132.605 87.7123 130.689 90.8899 128.067 90.1681C125.366 89.4244 122.854 91.843 123.494 94.5706C124.115 97.2177 120.867 99.0114 118.957 97.0757C116.99 95.081 113.605 95.9192 112.795 98.6016Z" fill="#64615E"/>
<path d="M112.795 98.6016C112.01 101.205 108.3 101.134 107.614 98.5028C106.908 95.7916 103.557 94.825 101.515 96.7433C99.5332 98.6049 96.3556 96.6887 97.0774 94.0672C97.8211 91.366 95.4025 88.8534 92.6749 89.4937C90.0278 90.115 88.2341 86.8668 90.1698 84.9574C92.1645 82.9899 91.3263 79.6047 88.6439 78.7953C86.0409 78.0099 86.1116 74.3 88.7427 73.6143C91.4539 72.9077 92.4205 69.5569 90.5022 67.5148C88.6406 65.5331 90.5568 62.3556 93.1783 63.0773C95.8795 63.821 98.3921 61.4024 97.7518 58.6748C97.1305 56.0278 100.379 54.234 102.288 56.1698C104.256 58.1645 107.641 57.3262 108.45 54.6439C109.236 52.0408 112.946 52.1115 113.631 54.7426C114.338 57.4538 117.689 58.4205 119.731 56.5022C121.712 54.6406 124.89 56.5568 124.168 59.1782C123.425 61.8795 125.843 64.392 128.571 63.7518C131.218 63.1304 133.011 66.3787 131.076 68.288C129.081 70.2555 129.919 73.6408 132.602 74.4501C135.205 75.2355 135.134 78.9455 132.503 79.6311C129.792 80.3377 128.825 83.6885 130.743 85.7306C132.605 87.7123 130.689 90.8899 128.067 90.1681C125.366 89.4244 122.854 91.843 123.494 94.5706C124.115 97.2177 120.867 99.0114 118.957 97.0757C116.99 95.081 113.605 95.9192 112.795 98.6016Z" fill="#FC7B04"/>
<path d="M112.795 98.6016C112.01 101.205 108.3 101.134 107.614 98.5028C106.908 95.7916 103.557 94.825 101.515 96.7433C99.5332 98.6049 96.3556 96.6887 97.0774 94.0672C97.8211 91.366 95.4025 88.8534 92.6749 89.4937C90.0278 90.115 88.2341 86.8668 90.1698 84.9574C92.1645 82.9899 91.3263 79.6047 88.6439 78.7953C86.0409 78.0099 86.1116 74.3 88.7427 73.6143C91.4539 72.9077 92.4205 69.5569 90.5022 67.5148C88.6406 65.5331 90.5568 62.3556 93.1783 63.0773C95.8795 63.821 98.3921 61.4024 97.7518 58.6748C97.1305 56.0278 100.379 54.234 102.288 56.1698C104.256 58.1645 107.641 57.3262 108.45 54.6439C109.236 52.0408 112.946 52.1115 113.631 54.7426C114.338 57.4538 117.689 58.4205 119.731 56.5022C121.712 54.6406 124.89 56.5568 124.168 59.1782C123.425 61.8795 125.843 64.392 128.571 63.7518C131.218 63.1304 133.011 66.3787 131.076 68.288C129.081 70.2555 129.919 73.6408 132.602 74.4501C135.205 75.2355 135.134 78.9455 132.503 79.6311C129.792 80.3377 128.825 83.6885 130.743 85.7306C132.605 87.7123 130.689 90.8899 128.067 90.1681C125.366 89.4244 122.854 91.843 123.494 94.5706C124.115 97.2177 120.867 99.0114 118.957 97.0757C116.99 95.081 113.605 95.9192 112.795 98.6016Z" fill="#B4B4B4"/>
<path d="M112.795 98.6016C112.01 101.205 108.3 101.134 107.614 98.5028C106.908 95.7916 103.557 94.825 101.515 96.7433C99.5332 98.6049 96.3556 96.6887 97.0774 94.0672C97.8211 91.366 95.4025 88.8534 92.6749 89.4937C90.0278 90.115 88.2341 86.8668 90.1698 84.9574C92.1645 82.9899 91.3263 79.6047 88.6439 78.7953C86.0409 78.0099 86.1116 74.3 88.7427 73.6143C91.4539 72.9077 92.4205 69.5569 90.5022 67.5148C88.6406 65.5331 90.5568 62.3556 93.1783 63.0773C95.8795 63.821 98.3921 61.4024 97.7518 58.6748C97.1305 56.0278 100.379 54.234 102.288 56.1698C104.256 58.1645 107.641 57.3262 108.45 54.6439C109.236 52.0408 112.946 52.1115 113.631 54.7426C114.338 57.4538 117.689 58.4205 119.731 56.5022C121.712 54.6406 124.89 56.5568 124.168 59.1782C123.425 61.8795 125.843 64.392 128.571 63.7518C131.218 63.1304 133.011 66.3787 131.076 68.288C129.081 70.2555 129.919 73.6408 132.602 74.4501C135.205 75.2355 135.134 78.9455 132.503 79.6311C129.792 80.3377 128.825 83.6885 130.743 85.7306C132.605 87.7123 130.689 90.8899 128.067 90.1681C125.366 89.4244 122.854 91.843 123.494 94.5706C124.115 97.2177 120.867 99.0114 118.957 97.0757C116.99 95.081 113.605 95.9192 112.795 98.6016Z" stroke="black"/>
<path d="M139.547 109.65C138.347 111.887 134.949 110.977 135.027 108.44C135.098 106.115 132.869 104.406 130.643 105.077C128.212 105.81 126.453 102.764 128.302 101.025C129.996 99.4318 129.629 96.6468 127.58 95.5471C125.343 94.3467 126.252 90.9492 128.79 91.0269C131.114 91.098 132.824 88.869 132.152 86.6425C131.42 84.2121 134.465 82.4529 136.204 84.3019C137.798 85.9958 140.583 85.6286 141.682 83.5795C142.883 81.3429 146.28 82.2524 146.203 84.7896C146.131 87.114 148.36 88.8237 150.587 88.1524C153.017 87.4196 154.777 90.4651 152.928 92.2043C151.234 93.7976 151.601 96.5827 153.65 97.6824C155.887 98.8828 154.977 102.28 152.44 102.203C150.115 102.131 148.406 104.36 149.077 106.587C149.81 109.017 146.764 110.777 145.025 108.928C143.432 107.234 140.647 107.601 139.547 109.65Z" fill="#64615E"/>
<path d="M139.547 109.65C138.347 111.887 134.949 110.977 135.027 108.44C135.098 106.115 132.869 104.406 130.643 105.077C128.212 105.81 126.453 102.764 128.302 101.025C129.996 99.4318 129.629 96.6468 127.58 95.5471C125.343 94.3467 126.252 90.9492 128.79 91.0269C131.114 91.098 132.824 88.869 132.152 86.6425C131.42 84.2121 134.465 82.4529 136.204 84.3019C137.798 85.9958 140.583 85.6286 141.682 83.5795C142.883 81.3429 146.28 82.2524 146.203 84.7896C146.131 87.114 148.36 88.8237 150.587 88.1524C153.017 87.4196 154.777 90.4651 152.928 92.2043C151.234 93.7976 151.601 96.5827 153.65 97.6824C155.887 98.8828 154.977 102.28 152.44 102.203C150.115 102.131 148.406 104.36 149.077 106.587C149.81 109.017 146.764 110.777 145.025 108.928C143.432 107.234 140.647 107.601 139.547 109.65Z" fill="#64615E"/>
<path d="M139.547 109.65C138.347 111.887 134.949 110.977 135.027 108.44C135.098 106.115 132.869 104.406 130.643 105.077C128.212 105.81 126.453 102.764 128.302 101.025C129.996 99.4318 129.629 96.6468 127.58 95.5471C125.343 94.3467 126.252 90.9492 128.79 91.0269C131.114 91.098 132.824 88.869 132.152 86.6425C131.42 84.2121 134.465 82.4529 136.204 84.3019C137.798 85.9958 140.583 85.6286 141.682 83.5795C142.883 81.3429 146.28 82.2524 146.203 84.7896C146.131 87.114 148.36 88.8237 150.587 88.1524C153.017 87.4196 154.777 90.4651 152.928 92.2043C151.234 93.7976 151.601 96.5827 153.65 97.6824C155.887 98.8828 154.977 102.28 152.44 102.203C150.115 102.131 148.406 104.36 149.077 106.587C149.81 109.017 146.764 110.777 145.025 108.928C143.432 107.234 140.647 107.601 139.547 109.65Z" fill="#5A5A5A"/>
<path d="M139.547 109.65C138.347 111.887 134.949 110.977 135.027 108.44C135.098 106.115 132.869 104.406 130.643 105.077C128.212 105.81 126.453 102.764 128.302 101.025C129.996 99.4318 129.629 96.6468 127.58 95.5471C125.343 94.3467 126.252 90.9492 128.79 91.0269C131.114 91.098 132.824 88.869 132.152 86.6425C131.42 84.2121 134.465 82.4529 136.204 84.3019C137.798 85.9958 140.583 85.6286 141.682 83.5795C142.883 81.3429 146.28 82.2524 146.203 84.7896C146.131 87.114 148.36 88.8237 150.587 88.1524C153.017 87.4196 154.777 90.4651 152.928 92.2043C151.234 93.7976 151.601 96.5827 153.65 97.6824C155.887 98.8828 154.977 102.28 152.44 102.203C150.115 102.131 148.406 104.36 149.077 106.587C149.81 109.017 146.764 110.777 145.025 108.928C143.432 107.234 140.647 107.601 139.547 109.65Z" stroke="black"/>
</svg>
