<svg width="359" height="199" viewBox="0 0 359 199" fill="none" xmlns="http://www.w3.org/2000/svg">
<path fill-rule="evenodd" clip-rule="evenodd" d="M18.5971 46.3822C-3.40289 39.3822 8.89353 17.3975 18.5971 11.3822C28.3008 5.36684 102.097 -8.61788 131.097 11.3822C160.098 31.3822 154.097 95.8681 131.097 115.382C108.097 134.896 87.0972 137.882 54.0972 115.382C35.1293 102.449 41.7656 125.528 48.6551 149.487C53.7519 167.211 58.9871 185.417 54.0972 189.882C42.5972 200.382 30.597 200.396 18.5971 189.882C6.59729 179.368 -2.40283 96.3681 18.5971 81.3821C31.916 71.8775 51.2686 75.4348 68.8738 78.6708C79.0269 80.5371 88.5989 82.2965 96.0971 81.3821C116.597 78.8821 118.168 41.6454 96.0971 46.3822C74.0261 51.119 40.5972 53.3822 18.5971 46.3822ZM35.5973 28.8822C38.6349 28.8822 41.0973 26.4197 41.0973 23.3822C41.0973 20.3446 38.6349 17.8822 35.5973 17.8822C32.5597 17.8822 30.0973 20.3446 30.0973 23.3822C30.0973 26.4197 32.5597 28.8822 35.5973 28.8822Z" fill="#D9D9D9"/>
<path d="M18.5971 11.3822L18.8606 11.8071L18.8606 11.8071L18.5971 11.3822ZM18.5971 46.3822L18.4455 46.8586L18.5971 46.3822ZM131.097 11.3822L130.813 11.7938L130.813 11.7938L131.097 11.3822ZM131.097 115.382L131.421 115.763L131.421 115.763L131.097 115.382ZM54.0972 115.382L53.8155 115.795L53.8155 115.795L54.0972 115.382ZM48.6551 149.487L48.1746 149.625L48.1746 149.625L48.6551 149.487ZM54.0972 189.882L54.4343 190.251L54.4343 190.251L54.0972 189.882ZM18.5971 189.882L18.9266 189.506L18.9266 189.506L18.5971 189.882ZM18.5971 81.3821L18.8876 81.7891L18.8876 81.7891L18.5971 81.3821ZM68.8738 78.6708L68.7834 79.1626L68.7834 79.1626L68.8738 78.6708ZM96.0971 81.3821L96.0366 80.8858L96.0366 80.8858L96.0971 81.3821ZM18.3337 10.9572C13.3729 14.0324 7.78675 21.1445 6.21953 28.4075C5.43264 32.0541 5.65082 35.7797 7.51691 39.0538C9.38438 42.3303 12.8606 45.0816 18.4455 46.8586L18.7487 45.9057C13.3337 44.1828 10.0969 41.561 8.3857 38.5586C6.67311 35.5538 6.44686 32.0948 7.19703 28.6184C8.70391 21.6351 14.1178 14.7472 18.8606 11.8071L18.3337 10.9572ZM131.381 10.9706C124.036 5.90497 113.894 3.0145 102.712 1.60268C91.5201 0.18976 79.2382 0.25216 67.5734 1.12781C55.9071 2.00356 44.8446 3.69381 36.0875 5.54273C31.7091 6.46716 27.9022 7.43225 24.8813 8.35668C21.8743 9.27688 19.6059 10.1686 18.3337 10.9572L18.8606 11.8071C20.0143 11.0919 22.1747 10.2307 25.174 9.31291C28.1594 8.39931 31.9364 7.44121 36.2941 6.52116C45.0091 4.68113 56.0276 2.99733 67.6482 2.125C79.2704 1.25256 91.4815 1.19282 102.586 2.5948C113.7 3.99788 123.658 6.85933 130.813 11.7938L131.381 10.9706ZM131.421 115.763C137.259 110.81 141.987 103.034 145.348 93.8846C148.711 84.7289 150.72 74.1611 151.097 63.5822C151.849 42.4648 146.095 21.1181 131.381 10.9706L130.813 11.7938C145.1 21.6463 150.846 42.5425 150.098 63.5466C149.724 74.0284 147.733 84.491 144.409 93.5397C141.083 102.595 136.435 110.198 130.774 115.001L131.421 115.763ZM53.8155 115.795C70.3576 127.074 83.9628 132.015 96.3624 131.637C108.77 131.259 119.876 125.558 131.421 115.763L130.774 115.001C119.318 124.72 108.424 130.269 96.3319 130.638C84.2316 131.006 70.8368 126.19 54.3788 114.969L53.8155 115.795ZM49.1356 149.349C47.4125 143.356 45.7091 137.432 44.4174 132.114C43.124 126.788 42.2529 122.106 42.1795 118.59C42.1428 116.83 42.3072 115.402 42.693 114.344C43.0744 113.297 43.6558 112.649 44.4499 112.355C45.2651 112.052 46.4045 112.083 47.9716 112.624C49.5333 113.164 51.4629 114.191 53.8155 115.795L54.3788 114.969C51.9895 113.34 49.9772 112.259 48.2982 111.679C46.6245 111.101 45.2243 111 44.1019 111.417C42.9585 111.842 42.2045 112.764 41.7534 114.001C41.3068 115.227 41.1418 116.796 41.1797 118.611C41.2556 122.242 42.1499 127.014 43.4457 132.35C44.7433 137.693 46.4529 143.638 48.1746 149.625L49.1356 149.349ZM54.4343 190.251C55.8097 188.996 56.4073 186.846 56.526 184.202C56.6457 181.535 56.2829 178.244 55.6131 174.567C54.273 167.212 51.6817 158.203 49.1356 149.349L48.1746 149.625C50.7252 158.495 53.3 167.451 54.6293 174.747C55.2941 178.395 55.6418 181.601 55.527 184.157C55.4113 186.736 54.8297 188.536 53.76 189.513L54.4343 190.251ZM18.2676 190.258C24.3278 195.568 30.4403 198.264 36.5347 198.262C42.6313 198.261 48.6211 195.559 54.4343 190.251L53.76 189.513C48.0732 194.705 42.313 197.261 36.5345 197.262C30.7539 197.264 24.8663 194.71 18.9266 189.506L18.2676 190.258ZM18.3067 80.9751C12.8875 84.8424 9.48437 93.0148 7.55919 103.085C5.62749 113.189 5.15914 125.34 5.72276 137.333C6.28648 149.327 7.88366 161.187 10.0945 170.714C11.1998 175.477 12.4609 179.668 13.8278 183.006C15.188 186.327 16.6768 188.864 18.2676 190.258L18.9266 189.506C17.5176 188.272 16.1001 185.916 14.7532 182.627C13.4132 179.354 12.1665 175.219 11.0686 170.488C8.87327 161.027 7.28295 149.229 6.72166 137.286C6.16026 125.341 6.62938 113.274 8.54141 103.273C10.4599 93.2373 13.8068 85.4149 18.8876 81.7891L18.3067 80.9751ZM68.9642 78.1791C60.1706 76.5627 50.888 74.8551 42.1342 74.7488C33.3768 74.6424 25.0873 76.1364 18.3067 80.9751L18.8876 81.7891C25.4258 77.1233 33.472 75.6436 42.122 75.7487C50.7755 75.8538 59.9718 77.5429 68.7834 79.1626L68.9642 78.1791ZM96.0366 80.8858C88.6312 81.7889 79.1455 80.0505 68.9642 78.1791L68.7834 79.1626C78.9084 81.0237 88.5665 82.8042 96.1576 81.8784L96.0366 80.8858ZM96.202 46.871C101.573 45.7184 105.424 47.1246 107.923 49.8396C110.446 52.5803 111.658 56.7278 111.561 61.1575C111.368 70.0479 105.945 79.6775 96.0366 80.8858L96.1576 81.8784C106.749 80.5868 112.362 70.348 112.561 61.1792C112.661 56.5794 111.409 52.1495 108.659 49.1624C105.886 46.1496 101.657 44.6776 95.9922 45.8933L96.202 46.871ZM18.4455 46.8586C29.5195 50.3822 43.4383 51.5668 57.3307 51.2834C71.2289 50.9998 85.1356 49.2461 96.202 46.871L95.9922 45.8933C84.9876 48.2551 71.1443 50.0013 57.3103 50.2836C43.4704 50.5659 29.6748 49.3822 18.7487 45.9057L18.4455 46.8586ZM40.5973 23.3822C40.5973 26.1436 38.3587 28.3822 35.5973 28.3822V29.3822C38.911 29.3822 41.5973 26.6959 41.5973 23.3822H40.5973ZM35.5973 18.3822C38.3587 18.3822 40.5973 20.6207 40.5973 23.3822H41.5973C41.5973 20.0685 38.911 17.3822 35.5973 17.3822V18.3822ZM30.5973 23.3822C30.5973 20.6207 32.8359 18.3822 35.5973 18.3822V17.3822C32.2836 17.3822 29.5973 20.0685 29.5973 23.3822H30.5973ZM35.5973 28.3822C32.8359 28.3822 30.5973 26.1436 30.5973 23.3822H29.5973C29.5973 26.6959 32.2836 29.3822 35.5973 29.3822V28.3822Z" fill="black"/>
<rect x="78" y="63" width="281" height="128" rx="29" fill="#FEA14B"/>
<path d="M126.136 161.96C125.048 161.96 124.184 161.64 123.544 161C122.904 160.296 122.584 159.336 122.584 158.12V96.68C122.584 95.464 122.904 94.536 123.544 93.896C124.184 93.192 125.048 92.84 126.136 92.84C127.288 92.84 128.184 93.192 128.824 93.896C129.464 94.536 129.784 95.464 129.784 96.68V123.464H171.928V96.68C171.928 95.464 172.248 94.536 172.888 93.896C173.528 93.192 174.424 92.84 175.576 92.84C176.664 92.84 177.528 93.192 178.168 93.896C178.808 94.536 179.128 95.464 179.128 96.68V158.12C179.128 159.336 178.808 160.296 178.168 161C177.528 161.64 176.664 161.96 175.576 161.96C174.488 161.96 173.592 161.64 172.888 161C172.248 160.296 171.928 159.336 171.928 158.12V129.512H129.784V158.12C129.784 159.336 129.464 160.296 128.824 161C128.184 161.64 127.288 161.96 126.136 161.96ZM221.663 161.96C215.967 161.96 211.007 160.84 206.783 158.6C202.623 156.36 199.423 153.128 197.183 148.904C194.943 144.68 193.823 139.656 193.823 133.832V96.68C193.823 95.464 194.143 94.536 194.783 93.896C195.423 93.192 196.287 92.84 197.375 92.84C198.527 92.84 199.423 93.192 200.063 93.896C200.703 94.536 201.023 95.464 201.023 96.68V134.12C201.023 141.032 202.847 146.376 206.495 150.152C210.143 153.928 215.263 155.816 221.855 155.816C228.511 155.816 233.695 153.928 237.407 150.152C241.183 146.312 243.071 140.968 243.071 134.12V96.68C243.071 95.464 243.391 94.536 244.031 93.896C244.735 93.192 245.631 92.84 246.719 92.84C247.871 92.84 248.735 93.192 249.311 93.896C249.951 94.536 250.271 95.464 250.271 96.68V133.832C250.271 139.464 249.119 144.424 246.815 148.712C244.511 152.936 241.183 156.2 236.831 158.504C232.543 160.808 227.487 161.96 221.663 161.96ZM277.564 161C273.66 161 270.62 159.976 268.444 157.928C266.268 155.816 265.18 152.936 265.18 149.288V105.32C265.18 101.736 266.236 98.92 268.348 96.872C270.524 94.824 273.532 93.8 277.372 93.8H300.124C306.588 93.8 311.612 95.4 315.196 98.6C318.78 101.8 320.572 106.312 320.572 112.136C320.572 115.464 319.708 118.376 317.98 120.872C316.252 123.304 313.884 125.16 310.876 126.44V126.632C314.268 127.848 316.924 129.768 318.844 132.392C320.764 134.952 321.724 137.992 321.724 141.512C321.724 147.528 319.9 152.296 316.252 155.816C312.604 159.272 307.612 161 301.276 161H277.564ZM300.892 123.752C304.668 123.752 307.676 122.696 309.916 120.584C312.156 118.472 313.276 115.656 313.276 112.136C313.276 108.104 312.156 105.032 309.916 102.92C307.676 100.808 304.412 99.752 300.124 99.752H277.468C275.996 99.752 274.78 100.296 273.82 101.384C272.86 102.408 272.38 103.72 272.38 105.32V123.752H300.892ZM300.892 154.952C305.308 154.952 308.668 153.832 310.972 151.592C313.276 149.288 314.428 145.96 314.428 141.608C314.428 137.832 313.212 134.888 310.78 132.776C308.348 130.664 305.02 129.608 300.796 129.608H272.38V149.48C272.38 151.08 272.86 152.392 273.82 153.416C274.78 154.44 275.996 154.952 277.468 154.952H300.892Z" fill="white"/>
<path d="M41.9575 83.0757C39.99 81.081 36.6047 81.9192 35.7954 84.6016C35.01 87.2046 31.3 87.1339 30.6144 84.5028C29.9078 81.7916 26.557 80.825 24.5149 82.7433C22.5332 84.6049 19.3556 82.6887 20.0774 80.0672C20.8211 77.366 18.4025 74.8534 15.6749 75.4937C13.0278 76.115 11.2341 72.8668 13.1698 70.9574C15.1645 68.9899 14.3263 65.6047 11.6439 64.7953C9.04089 64.0099 9.11159 60.3 11.7427 59.6143C14.4539 58.9077 15.4205 55.5569 13.5022 53.5148C11.6406 51.5331 13.5568 48.3556 16.1783 49.0773C18.8795 49.821 21.3921 47.4024 20.7518 44.6748C20.1305 42.0278 23.3787 40.234 25.2881 42.1698C27.2556 44.1645 30.6408 43.3262 31.4502 40.6439C32.2356 38.0408 35.9455 38.1115 36.6312 40.7426C37.3378 43.4538 40.6886 44.4205 42.7307 42.5022C44.7124 40.6406 47.8899 42.5568 47.1682 45.1782C46.4245 47.8795 48.8431 50.392 51.5707 49.7518C54.2177 49.1304 56.0115 52.3787 54.0757 54.288C52.081 56.2555 52.9193 59.6408 55.6016 60.4501C58.2047 61.2355 58.134 64.9455 55.5029 65.6311C52.7917 66.3377 51.825 69.6885 53.7433 71.7306C55.6049 73.7123 53.6887 76.8899 51.0673 76.1681C48.3661 75.4244 45.8535 77.843 46.4938 80.5706C47.1151 83.2177 43.8668 85.0114 41.9575 83.0757Z" fill="#64615E"/>
<path d="M41.9575 83.0757C39.99 81.081 36.6047 81.9192 35.7954 84.6016C35.01 87.2046 31.3 87.1339 30.6144 84.5028C29.9078 81.7916 26.557 80.825 24.5149 82.7433C22.5332 84.6049 19.3556 82.6887 20.0774 80.0672C20.8211 77.366 18.4025 74.8534 15.6749 75.4937C13.0278 76.115 11.2341 72.8668 13.1698 70.9574C15.1645 68.9899 14.3263 65.6047 11.6439 64.7953C9.04089 64.0099 9.11159 60.3 11.7427 59.6143C14.4539 58.9077 15.4205 55.5569 13.5022 53.5148C11.6406 51.5331 13.5568 48.3556 16.1783 49.0773C18.8795 49.821 21.3921 47.4024 20.7518 44.6748C20.1305 42.0278 23.3787 40.234 25.2881 42.1698C27.2556 44.1645 30.6408 43.3262 31.4502 40.6439C32.2356 38.0408 35.9455 38.1115 36.6312 40.7426C37.3378 43.4538 40.6886 44.4205 42.7307 42.5022C44.7124 40.6406 47.8899 42.5568 47.1682 45.1782C46.4245 47.8795 48.8431 50.392 51.5707 49.7518C54.2177 49.1304 56.0115 52.3787 54.0757 54.288C52.081 56.2555 52.9193 59.6408 55.6016 60.4501C58.2047 61.2355 58.134 64.9455 55.5029 65.6311C52.7917 66.3377 51.825 69.6885 53.7433 71.7306C55.6049 73.7123 53.6887 76.8899 51.0673 76.1681C48.3661 75.4244 45.8535 77.843 46.4938 80.5706C47.1151 83.2177 43.8668 85.0114 41.9575 83.0757Z" fill="#FC7B04"/>
<path d="M41.9575 83.0757C39.99 81.081 36.6047 81.9192 35.7954 84.6016C35.01 87.2046 31.3 87.1339 30.6144 84.5028C29.9078 81.7916 26.557 80.825 24.5149 82.7433C22.5332 84.6049 19.3556 82.6887 20.0774 80.0672C20.8211 77.366 18.4025 74.8534 15.6749 75.4937C13.0278 76.115 11.2341 72.8668 13.1698 70.9574C15.1645 68.9899 14.3263 65.6047 11.6439 64.7953C9.04089 64.0099 9.11159 60.3 11.7427 59.6143C14.4539 58.9077 15.4205 55.5569 13.5022 53.5148C11.6406 51.5331 13.5568 48.3556 16.1783 49.0773C18.8795 49.821 21.3921 47.4024 20.7518 44.6748C20.1305 42.0278 23.3787 40.234 25.2881 42.1698C27.2556 44.1645 30.6408 43.3262 31.4502 40.6439C32.2356 38.0408 35.9455 38.1115 36.6312 40.7426C37.3378 43.4538 40.6886 44.4205 42.7307 42.5022C44.7124 40.6406 47.8899 42.5568 47.1682 45.1782C46.4245 47.8795 48.8431 50.392 51.5707 49.7518C54.2177 49.1304 56.0115 52.3787 54.0757 54.288C52.081 56.2555 52.9193 59.6408 55.6016 60.4501C58.2047 61.2355 58.134 64.9455 55.5029 65.6311C52.7917 66.3377 51.825 69.6885 53.7433 71.7306C55.6049 73.7123 53.6887 76.8899 51.0673 76.1681C48.3661 75.4244 45.8535 77.843 46.4938 80.5706C47.1151 83.2177 43.8668 85.0114 41.9575 83.0757Z" fill="#B4B4B4"/>
<path d="M41.9575 83.0757C39.99 81.081 36.6047 81.9192 35.7954 84.6016C35.01 87.2046 31.3 87.1339 30.6144 84.5028C29.9078 81.7916 26.557 80.825 24.5149 82.7433C22.5332 84.6049 19.3556 82.6887 20.0774 80.0672C20.8211 77.366 18.4025 74.8534 15.6749 75.4937C13.0278 76.115 11.2341 72.8668 13.1698 70.9574C15.1645 68.9899 14.3263 65.6047 11.6439 64.7953C9.04089 64.0099 9.11159 60.3 11.7427 59.6143C14.4539 58.9077 15.4205 55.5569 13.5022 53.5148C11.6406 51.5331 13.5568 48.3556 16.1783 49.0773C18.8795 49.821 21.3921 47.4024 20.7518 44.6748C20.1305 42.0278 23.3787 40.234 25.2881 42.1698C27.2556 44.1645 30.6408 43.3262 31.4502 40.6439C32.2356 38.0408 35.9455 38.1115 36.6312 40.7426C37.3378 43.4538 40.6886 44.4205 42.7307 42.5022C44.7124 40.6406 47.8899 42.5568 47.1682 45.1782C46.4245 47.8795 48.8431 50.392 51.5707 49.7518C54.2177 49.1304 56.0115 52.3787 54.0757 54.288C52.081 56.2555 52.9193 59.6408 55.6016 60.4501C58.2047 61.2355 58.134 64.9455 55.5029 65.6311C52.7917 66.3377 51.825 69.6885 53.7433 71.7306C55.6049 73.7123 53.6887 76.8899 51.0673 76.1681C48.3661 75.4244 45.8535 77.843 46.4938 80.5706C47.1151 83.2177 43.8668 85.0114 41.9575 83.0757Z" stroke="black"/>
<path d="M68.0251 94.9275C66.4318 93.2336 63.6468 93.6009 62.5471 95.6499C61.3467 97.8866 57.9493 96.977 58.0269 94.4398C58.098 92.1154 55.869 90.4058 53.6425 91.0771C51.2121 91.8098 49.4529 88.7643 51.3019 87.0251C52.9958 85.4318 52.6286 82.6468 50.5795 81.5471C48.3429 80.3467 49.2524 76.9492 51.7897 77.0269C54.114 77.098 55.8237 74.869 55.1524 72.6425C54.4197 70.2121 57.4651 68.4529 59.2043 70.3019C60.7976 71.9958 63.5827 71.6286 64.6824 69.5795C65.8828 67.3429 69.2802 68.2524 69.2026 70.7896C69.1314 73.114 71.3605 74.8237 73.587 74.1524C76.0173 73.4196 77.7765 76.4651 75.9275 78.2043C74.2336 79.7976 74.6009 82.5827 76.6499 83.6824C78.8866 84.8828 77.977 88.2802 75.4398 88.2026C73.1154 88.1314 71.4058 90.3605 72.0771 92.5869C72.8098 95.0173 69.7643 96.7765 68.0251 94.9275Z" fill="#64615E"/>
<path d="M68.0251 94.9275C66.4318 93.2336 63.6468 93.6009 62.5471 95.6499C61.3467 97.8866 57.9493 96.977 58.0269 94.4398C58.098 92.1154 55.869 90.4058 53.6425 91.0771C51.2121 91.8098 49.4529 88.7643 51.3019 87.0251C52.9958 85.4318 52.6286 82.6468 50.5795 81.5471C48.3429 80.3467 49.2524 76.9492 51.7897 77.0269C54.114 77.098 55.8237 74.869 55.1524 72.6425C54.4197 70.2121 57.4651 68.4529 59.2043 70.3019C60.7976 71.9958 63.5827 71.6286 64.6824 69.5795C65.8828 67.3429 69.2802 68.2524 69.2026 70.7896C69.1314 73.114 71.3605 74.8237 73.587 74.1524C76.0173 73.4196 77.7765 76.4651 75.9275 78.2043C74.2336 79.7976 74.6009 82.5827 76.6499 83.6824C78.8866 84.8828 77.977 88.2802 75.4398 88.2026C73.1154 88.1314 71.4058 90.3605 72.0771 92.5869C72.8098 95.0173 69.7643 96.7765 68.0251 94.9275Z" fill="#64615E"/>
<path d="M68.0251 94.9275C66.4318 93.2336 63.6468 93.6009 62.5471 95.6499C61.3467 97.8866 57.9493 96.977 58.0269 94.4398C58.098 92.1154 55.869 90.4058 53.6425 91.0771C51.2121 91.8098 49.4529 88.7643 51.3019 87.0251C52.9958 85.4318 52.6286 82.6468 50.5795 81.5471C48.3429 80.3467 49.2524 76.9492 51.7897 77.0269C54.114 77.098 55.8237 74.869 55.1524 72.6425C54.4197 70.2121 57.4651 68.4529 59.2043 70.3019C60.7976 71.9958 63.5827 71.6286 64.6824 69.5795C65.8828 67.3429 69.2802 68.2524 69.2026 70.7896C69.1314 73.114 71.3605 74.8237 73.587 74.1524C76.0173 73.4196 77.7765 76.4651 75.9275 78.2043C74.2336 79.7976 74.6009 82.5827 76.6499 83.6824C78.8866 84.8828 77.977 88.2802 75.4398 88.2026C73.1154 88.1314 71.4058 90.3605 72.0771 92.5869C72.8098 95.0173 69.7643 96.7765 68.0251 94.9275Z" fill="#5A5A5A"/>
<path d="M68.0251 94.9275C66.4318 93.2336 63.6468 93.6009 62.5471 95.6499C61.3467 97.8866 57.9493 96.977 58.0269 94.4398C58.098 92.1154 55.869 90.4058 53.6425 91.0771C51.2121 91.8098 49.4529 88.7643 51.3019 87.0251C52.9958 85.4318 52.6286 82.6468 50.5795 81.5471C48.3429 80.3467 49.2524 76.9492 51.7897 77.0269C54.114 77.098 55.8237 74.869 55.1524 72.6425C54.4197 70.2121 57.4651 68.4529 59.2043 70.3019C60.7976 71.9958 63.5827 71.6286 64.6824 69.5795C65.8828 67.3429 69.2802 68.2524 69.2026 70.7896C69.1314 73.114 71.3605 74.8237 73.587 74.1524C76.0173 73.4196 77.7765 76.4651 75.9275 78.2043C74.2336 79.7976 74.6009 82.5827 76.6499 83.6824C78.8866 84.8828 77.977 88.2802 75.4398 88.2026C73.1154 88.1314 71.4058 90.3605 72.0771 92.5869C72.8098 95.0173 69.7643 96.7765 68.0251 94.9275Z" stroke="black"/>
</svg>
